<?xml version="1.0" encoding="UTF-8" standalone="no"?>
<svg
   xmlns:dc="http://purl.org/dc/elements/1.1/"
   xmlns:cc="http://creativecommons.org/ns#"
   xmlns:rdf="http://www.w3.org/1999/02/22-rdf-syntax-ns#"
   xmlns:svg="http://www.w3.org/2000/svg"
   xmlns="http://www.w3.org/2000/svg"
   xmlns:sodipodi="http://sodipodi.sourceforge.net/DTD/sodipodi-0.dtd"
   xmlns:inkscape="http://www.inkscape.org/namespaces/inkscape"
   width="13.729454mm"
   height="14.748331mm"
   viewBox="0 0 13.729454 14.748331"
   version="1.1"
   id="svg8"
   sodipodi:docname="gluon-pattern.svg"
   inkscape:version="1.0.2 (1.0.2+r75+1)">
  <defs
     id="defs2">
    <inkscape:path-effect
       effect="skeletal"
       id="path-effect2145"
       is_visible="true"
       lpeversion="1"
       pattern="m 47.628563,45.140103 c 0.02255,0 0.04508,-2.91e-4 0.06763,-8.21e-4 0.02255,-6.61e-4 0.04508,-0.0015 0.06763,-0.0027 0.02253,-0.0012 0.04508,-0.0027 0.06753,-0.0045 0.02255,-0.0017 0.04499,-0.0039 0.06738,-0.0063 0.02246,-0.0025 0.04483,-0.0051 0.06721,-0.0081 0.02237,-0.003 0.04467,-0.0063 0.06696,-0.0099 0.02221,-0.0035 0.04441,-0.0075 0.06663,-0.01179 0.02212,-0.0041 0.04418,-0.0086 0.06622,-0.01341 0.02204,-0.0048 0.044,-0.0099 0.06588,-0.01528 0.02188,-0.0053 0.04367,-0.01103 0.06547,-0.01697 0.02172,-0.0059 0.04334,-0.01216 0.06488,-0.01865 0.02155,-0.0066 0.043,-0.01331 0.06439,-0.02043 0.02138,-0.007 0.04259,-0.01444 0.06381,-0.02204 0.02114,-0.0076 0.04218,-0.01556 0.06314,-0.0238 0.02088,-0.0081 0.04169,-0.01658 0.0624,-0.02531 0.02072,-0.0088 0.04127,-0.01781 0.06174,-0.027 0.02047,-0.0093 0.04077,-0.01884 0.061,-0.0286 0.02014,-0.0099 0.04019,-0.01987 0.06008,-0.03019 0.01996,-0.01028 0.03968,-0.02081 0.05933,-0.03169 0.01955,-0.01078 0.03903,-0.02184 0.05834,-0.03309 0.01931,-0.01128 0.03845,-0.02288 0.05743,-0.03469 0.01898,-0.01166 0.03778,-0.0238 0.05643,-0.03599 0.01865,-0.01228 0.03713,-0.02474 0.05536,-0.03749 0.01831,-0.01275 0.03647,-0.02568 0.05435,-0.03881 0.01798,-0.01313 0.03573,-0.02653 0.05329,-0.04012 0.01757,-0.01359 0.03488,-0.02736 0.05204,-0.04143 0.01724,-0.01396 0.03422,-0.02822 0.05096,-0.04256 0.01675,-0.01444 0.03339,-0.02906 0.04972,-0.04387 0.0164,-0.01482 0.03257,-0.02981 0.04848,-0.045 0.016,-0.01518 0.03174,-0.03056 0.04724,-0.04603 0.0155,-0.01555 0.03083,-0.0313 0.0459,-0.04715 0.01508,-0.01593 0.02991,-0.03197 0.04459,-0.04817 0.01467,-0.01622 0.029,-0.03262 0.04318,-0.04913 0.01425,-0.01649 0.02817,-0.03318 0.04184,-0.05007 0.01374,-0.01678 0.02726,-0.03375 0.04043,-0.05081 0.01326,-0.01715 0.02627,-0.0344 0.03903,-0.05174 0.01276,-0.01734 0.02527,-0.03486 0.03753,-0.0525 0.01224,-0.01761 0.02428,-0.03534 0.03604,-0.05315 0.01173,-0.0179 0.02329,-0.03581 0.03464,-0.0539 0.01122,-0.018 0.02229,-0.03619 0.03307,-0.05437 0.01072,-0.01828 0.02121,-0.03665 0.03149,-0.05503 0.01021,-0.01838 0.0203,-0.03693 0.03,-0.0555 0.0097,-0.01856 0.01923,-0.03722 0.02843,-0.05596 0.0092,-0.01865 0.01824,-0.03741 0.02694,-0.05625 0.0087,-0.01884 0.01707,-0.03778 0.02527,-0.05662 0.0082,-0.01894 0.01608,-0.03796 0.02371,-0.057 0.0077,-0.01894 0.01501,-0.03806 0.02212,-0.05709 0.0072,-0.01903 0.01392,-0.03815 0.02056,-0.05727 0.0066,-0.01912 0.01284,-0.03825 0.0189,-0.05736 0.0061,-0.01912 0.01185,-0.03835 0.01732,-0.05746 0.0056,-0.01912 0.01072,-0.03825 0.01574,-0.05736 0.0049,-0.01912 0.0097,-0.03825 0.01409,-0.05736 0.0044,-0.01903 0.0087,-0.03816 0.01249,-0.05719 0.0039,-0.01903 0.0076,-0.03806 0.01097,-0.05699 0.0034,-0.01903 0.0064,-0.03796 0.0093,-0.0568 0.0028,-0.01894 0.0053,-0.03768 0.0078,-0.05652 0.0024,-0.01874 0.0044,-0.03741 0.0063,-0.05606 0.0018,-0.01865 0.0033,-0.03722 0.0047,-0.05577 0.0012,-0.01846 0.0023,-0.03693 0.003,-0.05521 7.14e-4,-0.01838 0.0012,-0.03655 0.0016,-0.05474 2.53e-4,-0.01817 2.53e-4,-0.03618 0,-0.05418 -2.53e-4,-0.0179 -7.14e-4,-0.03571 -0.0015,-0.05343 -7.14e-4,-0.01781 -0.0018,-0.03535 -0.003,-0.05286 -0.0012,-0.01754 -0.0028,-0.03488 -0.0044,-0.05212 -0.0018,-0.01725 -0.0038,-0.03431 -0.0058,-0.05127 -0.0023,-0.01697 -0.0047,-0.03384 -0.0073,-0.05053 -0.0026,-0.01669 -0.0056,-0.03318 -0.0087,-0.04959 -0.0031,-0.01631 -0.0064,-0.03253 -0.01009,-0.04856 -0.0035,-0.01612 -0.0073,-0.03197 -0.01135,-0.04771 -0.004,-0.01565 -0.0082,-0.03123 -0.01276,-0.04658 -0.0044,-0.01538 -0.0091,-0.03056 -0.014,-0.04556 -0.0049,-0.01501 -0.01,-0.02981 -0.01525,-0.04444 -0.0053,-0.01453 -0.01072,-0.02897 -0.01649,-0.04321 -0.0058,-0.01415 -0.0116,-0.02822 -0.01765,-0.04199 -0.0062,-0.01378 -0.01236,-0.02736 -0.0188,-0.04078 -0.0064,-0.01341 -0.01318,-0.02652 -0.01997,-0.03946 -0.0068,-0.01294 -0.01385,-0.02569 -0.02105,-0.03815 -0.0073,-0.01241 -0.01459,-0.02474 -0.02204,-0.03674 -0.0076,-0.01203 -0.01525,-0.02381 -0.02312,-0.03534 -0.0078,-0.01153 -0.0159,-0.02288 -0.02404,-0.03394 -0.0082,-0.01103 -0.01649,-0.02184 -0.02502,-0.03234 -0.0085,-0.01065 -0.01707,-0.02091 -0.02587,-0.03093 -0.0088,-0.01003 -0.01765,-0.01987 -0.02668,-0.02933 -0.0091,-0.0095 -0.01823,-0.01884 -0.02752,-0.02784 -0.0092,-0.009 -0.01872,-0.01771 -0.02826,-0.02616 -0.0096,-0.0085 -0.01923,-0.01668 -0.02892,-0.02456 -0.0097,-0.008 -0.01965,-0.01556 -0.02967,-0.02297 -0.01,-0.0074 -0.02005,-0.01444 -0.03025,-0.02119 -0.01021,-0.0068 -0.02047,-0.01332 -0.03083,-0.01959 -0.01034,-0.0061 -0.0208,-0.01216 -0.03132,-0.01781 -0.01047,-0.0056 -0.02114,-0.01103 -0.03182,-0.01612 -0.01059,-0.0051 -0.02138,-0.0099 -0.03223,-0.01434 -0.01072,-0.0045 -0.02162,-0.0088 -0.03257,-0.01256 -0.01097,-0.0039 -0.02188,-0.0075 -0.0329,-0.01091 -0.0111,-0.0033 -0.02212,-0.0063 -0.03323,-0.009 -0.0111,-0.0027 -0.0223,-0.0051 -0.03347,-0.0073 -0.01122,-0.0021 -0.02237,-0.0039 -0.03357,-0.0054 -0.01122,-0.0015 -0.02255,-0.0027 -0.03381,-0.0036 -0.01122,-8.2e-4 -0.02253,-0.0015 -0.03381,-0.0017 -0.01122,-2.91e-4 -0.02255,-2.91e-4 -0.03381,0 -0.01122,2.91e-4 -0.02253,9.26e-4 -0.03381,0.0017 -0.01122,9.26e-4 -0.02253,0.0021 -0.03372,0.0036 -0.01122,0.0015 -0.02246,0.0033 -0.03365,0.0054 -0.01122,0.002 -0.0223,0.0045 -0.03339,0.0073 -0.01122,0.0027 -0.02221,0.0058 -0.03323,0.009 -0.01097,0.0034 -0.02204,0.0069 -0.03298,0.01091 -0.01085,0.0039 -0.02179,0.008 -0.03257,0.01256 -0.01085,0.0045 -0.02155,0.0093 -0.03223,0.01434 -0.01072,0.0051 -0.0213,0.01053 -0.03183,0.01612 -0.01047,0.0056 -0.02096,0.01166 -0.03132,0.01781 -0.01034,0.0063 -0.02063,0.01275 -0.03082,0.01959 -0.01021,0.0068 -0.02021,0.01388 -0.03025,0.02119 -0.01,0.0074 -0.0198,0.01501 -0.02958,0.02297 -0.0097,0.0079 -0.01947,0.01603 -0.029,0.02456 -0.0096,0.0084 -0.01898,0.01715 -0.02826,0.02616 -0.0092,0.009 -0.01848,0.01828 -0.02752,0.02784 -0.0091,0.0094 -0.01791,0.01931 -0.02668,0.02933 -0.0088,0.01003 -0.01741,0.02035 -0.02587,0.03093 -0.0085,0.01053 -0.01683,0.02127 -0.02495,0.03234 -0.0082,0.01103 -0.01624,0.0224 -0.02411,0.03394 -0.0078,0.01153 -0.0155,0.02334 -0.02304,0.03534 -0.0076,0.01203 -0.01492,0.02427 -0.02212,0.03674 -0.0072,0.01241 -0.01417,0.02521 -0.02096,0.03815 -0.0068,0.01293 -0.01351,0.02606 -0.01996,0.03946 -0.0064,0.01341 -0.01276,0.027 -0.0188,0.04078 -0.0062,0.01378 -0.01198,0.02784 -0.01773,0.04199 -0.0058,0.01426 -0.01122,0.02869 -0.01649,0.04321 -0.0053,0.01462 -0.01034,0.02943 -0.01525,0.04444 -0.0049,0.01499 -0.0096,0.03019 -0.014,0.04556 -0.0044,0.01538 -0.0087,0.03093 -0.01269,0.04658 -0.004,0.01575 -0.0078,0.03159 -0.01148,0.04771 -0.0035,0.01602 -0.0069,0.03225 -0.01009,0.04856 -0.003,0.01641 -0.0059,0.03289 -0.0087,0.04959 -0.0028,0.01668 -0.0052,0.03356 -0.0073,0.05053 -0.0023,0.01697 -0.0043,0.03402 -0.0058,0.05127 -0.0018,0.01725 -0.0033,0.03459 -0.0044,0.05212 -0.0012,0.01754 -0.0023,0.03505 -0.003,0.05286 -7.14e-4,0.01771 -0.0012,0.03553 -0.0014,0.05343 -2.53e-4,0.018 -2.53e-4,0.03609 0,0.05418 2.54e-4,0.01818 7.15e-4,0.03638 0.0015,0.05474 8.2e-4,0.01828 0.0018,0.03676 0.003,0.05521 0.0013,0.01856 0.0029,0.03712 0.0047,0.05577 0.0018,0.01865 0.0039,0.03732 0.0063,0.05606 0.0023,0.01884 0.0049,0.03758 0.0078,0.05652 0.0029,0.01884 0.0059,0.03778 0.0093,0.0568 0.0034,0.01894 0.0071,0.03796 0.01097,0.05699 0.0039,0.01903 0.0082,0.03815 0.01248,0.05719 0.0044,0.01912 0.0091,0.03825 0.0141,0.05736 0.0049,0.01912 0.01021,0.03825 0.01575,0.05736 0.0056,0.01912 0.01122,0.03835 0.01731,0.05746 0.0061,0.01912 0.01236,0.03825 0.01898,0.05736 0.0066,0.01912 0.01343,0.03825 0.02047,0.05727 0.0072,0.01903 0.0145,0.03815 0.02212,0.05709 0.0077,0.01903 0.01559,0.03806 0.02371,0.057 0.0082,0.01884 0.01666,0.03778 0.02536,0.05662 0.0087,0.01884 0.01765,0.03758 0.02685,0.05625 0.0092,0.01874 0.01873,0.03741 0.02842,0.05596 0.0097,0.01856 0.01972,0.03712 0.03,0.0555 0.01021,0.01838 0.0208,0.03675 0.03156,0.05503 0.01072,0.01818 0.02179,0.03638 0.03307,0.05437 0.01122,0.01809 0.02279,0.03599 0.03455,0.0539 0.01173,0.01781 0.02378,0.03553 0.03604,0.05315 0.01223,0.01761 0.02478,0.03515 0.03753,0.0525 0.01276,0.01733 0.02576,0.03459 0.03903,0.05174 0.01326,0.01706 0.02668,0.03402 0.04044,0.05081 0.01367,0.01687 0.02768,0.03356 0.04184,0.05007 0.01417,0.01649 0.02859,0.0329 0.04318,0.04913 0.01467,0.01621 0.02951,0.03225 0.04459,0.04817 0.01508,0.01584 0.03042,0.03159 0.046,0.04715 0.0155,0.01547 0.03124,0.03084 0.04715,0.04603 0.01599,0.01518 0.03216,0.03019 0.04847,0.045 0.0164,0.01482 0.03298,0.02943 0.04972,0.04387 0.01682,0.01434 0.03381,0.0286 0.05096,0.04256 0.01715,0.01405 0.03455,0.02784 0.05212,0.04143 0.01756,0.01359 0.0353,0.027 0.0532,0.04012 0.01798,0.01312 0.03604,0.02606 0.05435,0.03881 0.01831,0.01275 0.03679,0.02522 0.05544,0.03749 0.01865,0.01216 0.03745,0.02428 0.05643,0.03599 0.01898,0.01178 0.03812,0.02334 0.05735,0.03469 0.01931,0.01128 0.03878,0.02231 0.05841,0.03309 0.01955,0.01091 0.03936,0.02137 0.05926,0.03169 0.01989,0.01028 0.03994,0.02035 0.06016,0.03019 0.02014,0.0098 0.04044,0.01931 0.06091,0.0286 0.02047,0.0093 0.04102,0.01828 0.06174,0.027 0.02072,0.0088 0.04152,0.01715 0.06249,0.02531 0.02088,0.0083 0.04193,0.01612 0.06314,0.0238 0.02114,0.0075 0.04243,0.01501 0.06381,0.02204 0.0213,0.0071 0.04276,0.01387 0.06431,0.02043 0.02155,0.0065 0.04325,0.01275 0.06497,0.01865 0.02172,0.0059 0.04351,0.01166 0.06539,0.01697 0.02188,0.0053 0.04385,0.01053 0.06588,0.01528 0.02204,0.0048 0.04417,0.0093 0.06629,0.01341 0.02212,0.0043 0.04434,0.0081 0.06663,0.01179 0.02221,0.0036 0.04459,0.0069 0.06687,0.0099 0.02237,0.003 0.04474,0.0058 0.0672,0.0081 0.02246,0.0025 0.04492,0.0045 0.06737,0.0063 0.02246,0.0019 0.045,0.0034 0.06754,0.0045 0.02253,0.0012 0.04508,0.002 0.06763,0.0027 0.02255,5.3e-4 0.04516,8.21e-4 0.06771,8.21e-4"
       copytype="repeated_stretched"
       prop_scale="1"
       scale_y_rel="false"
       spacing="0"
       normal_offset="0"
       tang_offset="0"
       prop_units="false"
       vertical_pattern="false"
       hide_knot="false"
       fuse_tolerance="1" />
    <inkscape:path-effect
       effect="bspline"
       id="path-effect2143"
       is_visible="true"
       lpeversion="1"
       weight="33.333333"
       steps="2"
       helper_size="0"
       apply_no_weight="true"
       apply_with_weight="true"
       only_selected="false" />
    <inkscape:path-effect
       effect="skeletal"
       id="path-effect1057"
       is_visible="true"
       lpeversion="1"
       pattern="#path1048"
       copytype="repeated_stretched"
       prop_scale="1"
       scale_y_rel="false"
       spacing="0"
       normal_offset="0"
       tang_offset="0"
       prop_units="false"
       vertical_pattern="false"
       hide_knot="false"
       fuse_tolerance="0" />
    <inkscape:path-effect
       effect="bspline"
       id="path-effect1055"
       is_visible="true"
       lpeversion="1"
       weight="33.333333"
       steps="2"
       helper_size="0"
       apply_no_weight="true"
       apply_with_weight="true"
       only_selected="false" />
  </defs>
  <sodipodi:namedview
     id="base"
     pagecolor="#ffffff"
     bordercolor="#666666"
     borderopacity="1.0"
     inkscape:pageopacity="0.0"
     inkscape:pageshadow="2"
     inkscape:zoom="0.98994949"
     inkscape:cx="73.835912"
     inkscape:cy="11.671682"
     inkscape:document-units="mm"
     inkscape:current-layer="layer1"
     inkscape:document-rotation="0"
     showgrid="false"
     inkscape:window-width="1920"
     inkscape:window-height="1031"
     inkscape:window-x="0"
     inkscape:window-y="25"
     inkscape:window-maximized="1" />
  <metadata
     id="metadata5">
    <rdf:RDF>
      <cc:Work
         rdf:about="">
        <dc:format>image/svg+xml</dc:format>
        <dc:type
           rdf:resource="http://purl.org/dc/dcmitype/StillImage" />
        <dc:title></dc:title>
      </cc:Work>
    </rdf:RDF>
  </metadata>
  <g
     inkscape:label="Layer 1"
     inkscape:groupmode="layer"
     id="layer1"
     transform="translate(-37.558831,-32.714516)">
    <path
       style="fill:none;stroke:#000000;stroke-width:1;stroke-linecap:round;stroke-linejoin:round;stroke-miterlimit:4;stroke-dasharray:none;stroke-dashoffset:0;stroke-opacity:1;paint-order:fill markers stroke"
       d="m 38.058831,46.962847 c 0.08522,0 0.170393,-0.0011 0.255611,-0.0031 0.08522,-0.0025 0.170391,-0.0056 0.255611,-0.01038 0.08517,-0.0045 0.170391,-0.01038 0.255229,-0.01706 0.08522,-0.0066 0.170059,-0.01468 0.254658,-0.0237 0.08488,-0.0094 0.169438,-0.01943 0.254038,-0.03079 0.08455,-0.01134 0.168817,-0.0237 0.253084,-0.03743 0.08394,-0.01325 0.167865,-0.02843 0.251846,-0.04454 0.08359,-0.01564 0.166959,-0.03269 0.250272,-0.05069 0.08331,-0.018 0.166292,-0.03743 0.248985,-0.05775 0.08269,-0.0199 0.165054,-0.04169 0.247461,-0.06415 0.08208,-0.02227 0.163814,-0.04595 0.24522,-0.0705 0.08146,-0.02511 0.162527,-0.05031 0.243362,-0.07723 0.08079,-0.02654 0.160954,-0.05459 0.241169,-0.08329 0.07989,-0.0289 0.159428,-0.0588 0.238643,-0.08997 0.07893,-0.03079 0.15757,-0.06268 0.235831,-0.09567 0.07831,-0.03316 0.155996,-0.06733 0.233352,-0.102056 0.07735,-0.03506 0.154091,-0.07121 0.23054,-0.108078 0.07611,-0.03743 0.151898,-0.0751 0.227061,-0.114088 0.07545,-0.03885 0.149992,-0.07865 0.22425,-0.119769 0.07388,-0.04075 0.147513,-0.08254 0.220483,-0.125081 0.07298,-0.04264 0.145321,-0.08646 0.217053,-0.131104 0.07173,-0.04406 0.142795,-0.08997 0.213286,-0.136021 0.0705,-0.04643 0.140317,-0.09352 0.209236,-0.141711 0.0692,-0.04818 0.137838,-0.09708 0.205423,-0.146686 0.06797,-0.04961 0.135032,-0.100253 0.201419,-0.151613 0.06639,-0.05136 0.13183,-0.103422 0.1967,-0.156589 0.06516,-0.05278 0.129353,-0.106645 0.192601,-0.160851 0.0633,-0.05459 0.126206,-0.109827 0.187931,-0.165827 0.062,-0.05601 0.123113,-0.112667 0.183213,-0.170092 0.06048,-0.05737 0.119966,-0.115508 0.178541,-0.173977 0.05858,-0.05879 0.116531,-0.118307 0.173489,-0.178193 0.05701,-0.06021 0.113055,-0.12082 0.168532,-0.182077 0.05543,-0.06131 0.109621,-0.123279 0.163195,-0.18568 0.05386,-0.06234 0.106473,-0.125409 0.158142,-0.189232 0.05194,-0.06344 0.103039,-0.12754 0.152803,-0.192028 0.0501,-0.06482 0.09928,-0.130011 0.147514,-0.195533 0.04824,-0.06553 0.09551,-0.13176 0.141841,-0.198425 0.04624,-0.06656 0.09175,-0.133562 0.136223,-0.200886 0.04432,-0.06766 0.08803,-0.135365 0.130927,-0.203732 0.04242,-0.06804 0.08426,-0.136784 0.124974,-0.205483 0.04052,-0.06908 0.08017,-0.138538 0.119008,-0.207995 0.0386,-0.06946 0.07674,-0.13958 0.113384,-0.209748 0.0367,-0.07013 0.07269,-0.140669 0.107432,-0.2115 0.0348,-0.0705 0.06893,-0.141379 0.101807,-0.212591 0.03288,-0.07121 0.06453,-0.1428 0.09551,-0.214012 0.03098,-0.07159 0.06077,-0.143464 0.0896,-0.215432 0.02908,-0.07159 0.05672,-0.143844 0.08359,-0.215766 0.02716,-0.07192 0.05261,-0.144174 0.0777,-0.216475 0.02478,-0.07226 0.04852,-0.144553 0.07144,-0.216807 0.02288,-0.07226 0.0448,-0.144932 0.06544,-0.217186 0.02098,-0.07226 0.04052,-0.144554 0.05948,-0.216807 0.01858,-0.07226 0.0367,-0.144553 0.05324,-0.216808 0.01668,-0.07192 0.03288,-0.144221 0.0472,-0.216144 0.01478,-0.07192 0.0286,-0.143843 0.04146,-0.215384 0.01286,-0.07192 0.0243,-0.143465 0.03528,-0.214676 0.01054,-0.07159 0.02002,-0.142421 0.02954,-0.213633 0.009,-0.07084 0.01668,-0.141379 0.02382,-0.21188 0.0067,-0.0705 0.01245,-0.140668 0.01764,-0.210789 0.0045,-0.06979 0.0086,-0.139579 0.01149,-0.208657 0.0027,-0.06946 0.0045,-0.138159 0.0062,-0.206906 9.57e-4,-0.06869 9.57e-4,-0.136736 0,-0.204773 -9.56e-4,-0.06765 -0.0027,-0.134982 -0.0057,-0.20193 -0.0027,-0.06733 -0.0067,-0.133603 -0.01149,-0.199798 -0.0045,-0.06629 -0.01054,-0.131814 -0.01668,-0.197003 -0.0067,-0.0652 -0.0143,-0.12967 -0.02192,-0.19378 -0.0086,-0.06415 -0.01764,-0.127881 -0.02764,-0.190985 -0.01,-0.06307 -0.02098,-0.12541 -0.03288,-0.187433 -0.0119,-0.06165 -0.0243,-0.12295 -0.03812,-0.183546 -0.01341,-0.06094 -0.02764,-0.120821 -0.0429,-0.180326 -0.01526,-0.05917 -0.03098,-0.118021 -0.04824,-0.176061 -0.01668,-0.05814 -0.03432,-0.115508 -0.0529,-0.172177 -0.01858,-0.05672 -0.03764,-0.112667 -0.05762,-0.167959 -0.02002,-0.05491 -0.04052,-0.109499 -0.06234,-0.163316 -0.02192,-0.05349 -0.04384,-0.106644 -0.06672,-0.15872 -0.02334,-0.05207 -0.0467,-0.103422 -0.07106,-0.154124 -0.0243,-0.05069 -0.04981,-0.100253 -0.07549,-0.149149 -0.02574,-0.04889 -0.05233,-0.09709 -0.07954,-0.144175 -0.02764,-0.04691 -0.05515,-0.09352 -0.08331,-0.138869 -0.0286,-0.04548 -0.05762,-0.08997 -0.08737,-0.133562 -0.02954,-0.04359 -0.0601,-0.08647 -0.09085,-0.128264 -0.03098,-0.04169 -0.06234,-0.08253 -0.09457,-0.12224 -0.03194,-0.04027 -0.06453,-0.07903 -0.09776,-0.116888 -0.03336,-0.0379 -0.06672,-0.0751 -0.10085,-0.110864 -0.03432,-0.03601 -0.06891,-0.07121 -0.103997,-0.105225 -0.0348,-0.03411 -0.07077,-0.06695 -0.106815,-0.09887 -0.03622,-0.03222 -0.07269,-0.06305 -0.109293,-0.09281 -0.0367,-0.03033 -0.07426,-0.0588 -0.112153,-0.0868 -0.03764,-0.02796 -0.07578,-0.05459 -0.114342,-0.08007 -0.0386,-0.02558 -0.07735,-0.05033 -0.116531,-0.07406 -0.03908,-0.02322 -0.0786,-0.04595 -0.118392,-0.06733 -0.03956,-0.02132 -0.07989,-0.04169 -0.120254,-0.06094 -0.04004,-0.01942 -0.08079,-0.03743 -0.121827,-0.0542 -0.04052,-0.01706 -0.08173,-0.03316 -0.123113,-0.04747 -0.04148,-0.01468 -0.08269,-0.02843 -0.124345,-0.04122 -0.04194,-0.01229 -0.08359,-0.02369 -0.12559,-0.03411 -0.04194,-0.01038 -0.08427,-0.01943 -0.126493,-0.02748 -0.04242,-0.0081 -0.08455,-0.01468 -0.126876,-0.02038 -0.04242,-0.0056 -0.08522,-0.01038 -0.12778,-0.01374 -0.04242,-0.0031 -0.08517,-0.0056 -0.127779,-0.0066 -0.04242,-0.0011 -0.08522,-0.0011 -0.12778,0 -0.04242,0.0011 -0.08517,0.0035 -0.127779,0.0066 -0.04242,0.0035 -0.08517,0.0081 -0.127451,0.01374 -0.04242,0.0056 -0.08488,0.01229 -0.127164,0.02038 -0.04242,0.0076 -0.08427,0.01706 -0.126206,0.02748 -0.04242,0.01038 -0.08394,0.0218 -0.12559,0.03411 -0.04146,0.01284 -0.08331,0.02606 -0.124632,0.04122 -0.041,0.01468 -0.08236,0.03032 -0.123113,0.04747 -0.041,0.01706 -0.08146,0.03506 -0.121827,0.0542 -0.04052,0.01943 -0.0805,0.0398 -0.120295,0.06094 -0.03956,0.02132 -0.07921,0.04406 -0.118392,0.06733 -0.03908,0.02369 -0.07797,0.04818 -0.11649,0.07406 -0.0386,0.02558 -0.0764,0.05244 -0.114342,0.08007 -0.03766,0.02795 -0.07482,0.05672 -0.111811,0.0868 -0.0367,0.02984 -0.07359,0.0606 -0.109621,0.09281 -0.03622,0.03174 -0.07173,0.06481 -0.106802,0.09887 -0.0348,0.03411 -0.06983,0.06907 -0.103997,0.105225 -0.03432,0.03553 -0.06768,0.07297 -0.10085,0.110864 -0.03336,0.03791 -0.06578,0.0769 -0.09776,0.116888 -0.03194,0.03979 -0.06359,0.0804 -0.09428,0.12224 -0.03098,0.04169 -0.06139,0.08467 -0.09113,0.128264 -0.02954,0.04359 -0.05858,0.08822 -0.08708,0.133562 -0.0286,0.04548 -0.05638,0.09173 -0.0836,0.138869 -0.02716,0.04691 -0.05357,0.09528 -0.07921,0.144175 -0.02574,0.04889 -0.05105,0.09851 -0.07545,0.149149 -0.0243,0.05069 -0.04823,0.102057 -0.07106,0.154124 -0.02334,0.05207 -0.04528,0.105225 -0.06701,0.15872 -0.02192,0.05388 -0.04242,0.108448 -0.06234,0.163316 -0.02002,0.05524 -0.03908,0.111247 -0.05762,0.167959 -0.01858,0.05666 -0.03622,0.114088 -0.0529,0.172177 -0.01668,0.05814 -0.03288,0.116887 -0.04795,0.176061 -0.01524,0.05952 -0.02954,0.1194 -0.04338,0.180326 -0.01327,0.06054 -0.02622,0.121899 -0.03812,0.183546 -0.01149,0.06202 -0.0224,0.124317 -0.03288,0.187433 -0.01054,0.06305 -0.01954,0.126829 -0.02764,0.190985 -0.0086,0.06414 -0.0162,0.128591 -0.02192,0.19378 -0.0067,0.0652 -0.01245,0.130721 -0.01668,0.197003 -0.0045,0.06629 -0.0086,0.132469 -0.01149,0.199798 -0.0027,0.06694 -0.0045,0.134272 -0.0052,0.20193 -9.56e-4,0.06804 -9.56e-4,0.136403 0,0.204773 9.57e-4,0.06871 0.0027,0.137494 0.0057,0.206906 0.0031,0.06908 0.0067,0.138915 0.01149,0.208657 0.0048,0.07013 0.01095,0.140289 0.01764,0.210789 0.0067,0.0705 0.01478,0.141049 0.02382,0.21188 0.0086,0.07121 0.01858,0.142043 0.02954,0.213633 0.01095,0.07121 0.0224,0.142801 0.03528,0.214676 0.01286,0.07159 0.0267,0.143463 0.04148,0.215384 0.01478,0.07192 0.03098,0.144176 0.04718,0.216144 0.01668,0.07226 0.03432,0.144554 0.05328,0.216808 0.01858,0.07226 0.0386,0.144554 0.05953,0.216807 0.02098,0.07226 0.04242,0.144933 0.06544,0.217186 0.02288,0.07226 0.0467,0.144553 0.07173,0.216807 0.02478,0.07226 0.05077,0.144554 0.07736,0.216475 0.02716,0.07192 0.05482,0.144176 0.08359,0.215766 0.02908,0.07192 0.05891,0.143843 0.0896,0.215432 0.03098,0.07121 0.06296,0.142801 0.09586,0.214012 0.03288,0.07121 0.06672,0.142043 0.101479,0.212591 0.0348,0.07084 0.07077,0.141379 0.107432,0.2115 0.0367,0.07017 0.07454,0.14029 0.113384,0.209748 0.0386,0.06946 0.0786,0.138915 0.119296,0.207995 0.04052,0.06871 0.08236,0.137495 0.124974,0.205483 0.04242,0.06837 0.08613,0.13602 0.130598,0.203732 0.04432,0.06733 0.08989,0.134272 0.136222,0.200886 0.04624,0.06656 0.09365,0.132852 0.141843,0.198425 0.04823,0.06552 0.09737,0.130721 0.147513,0.195533 0.0501,0.06449 0.100849,0.128591 0.152852,0.192028 0.05166,0.06378 0.104613,0.126829 0.158141,0.189232 0.05357,0.06234 0.108047,0.12433 0.163195,0.18568 0.05543,0.06126 0.111523,0.121899 0.168532,0.182077 0.05701,0.05988 0.114958,0.1194 0.173871,0.178193 0.05858,0.05846 0.118064,0.116546 0.178207,0.173977 0.06044,0.05737 0.12154,0.114087 0.183213,0.170092 0.062,0.05601 0.124632,0.111247 0.18793,0.165827 0.06358,0.0542 0.12778,0.108079 0.192601,0.160851 0.06482,0.05311 0.130599,0.105225 0.196987,0.156589 0.06639,0.05135 0.133404,0.102056 0.201085,0.151613 0.06797,0.0496 0.136222,0.09851 0.205423,0.146686 0.0692,0.04818 0.13903,0.09532 0.209522,0.141711 0.0705,0.04595 0.141555,0.09177 0.213287,0.136021 0.07173,0.04453 0.144081,0.08822 0.216765,0.131104 0.07298,0.04264 0.146561,0.08433 0.220771,0.125081 0.07388,0.04123 0.148751,0.08078 0.223963,0.119769 0.07517,0.03885 0.150945,0.0769 0.227394,0.114088 0.07611,0.03695 0.152852,0.07297 0.230206,0.108078 0.07735,0.03506 0.155045,0.06908 0.233353,0.102056 0.07831,0.03316 0.156904,0.06482 0.236165,0.09567 0.07893,0.03127 0.158476,0.06094 0.238643,0.08997 0.07989,0.02843 0.160383,0.05672 0.241169,0.08329 0.0805,0.02701 0.161621,0.05244 0.243075,0.07723 0.08146,0.02464 0.163481,0.04818 0.245555,0.0705 0.08208,0.02226 0.164433,0.04406 0.247127,0.06415 0.08269,0.0199 0.165719,0.03979 0.248985,0.05775 0.08331,0.018 0.166959,0.03506 0.250558,0.05069 0.08359,0.01611 0.16758,0.0308 0.251846,0.04454 0.08394,0.01374 0.168531,0.02606 0.252751,0.03743 0.08455,0.01133 0.169103,0.0218 0.253989,0.03079 0.08488,0.0094 0.169771,0.01706 0.25461,0.0237 0.08488,0.0071 0.170058,0.01284 0.255277,0.01706 0.08517,0.0045 0.170392,0.0076 0.255611,0.01038 0.08522,0.002 0.170676,0.0031 0.255896,0.0031"
       title="t/12+cos(t/4) sin(t/4)"
       id="path1048" />
  </g>
</svg>
